<?xml version="1.0" standalone="no"?>
<!DOCTYPE svg PUBLIC "-//W3C//DTD SVG 20010904//EN"
 "http://www.w3.org/TR/2001/REC-SVG-20010904/DTD/svg10.dtd">
<svg version="1.0" xmlns="http://www.w3.org/2000/svg"
 width="1280.000000pt" height="1280.000000pt" viewBox="0 0 1280.000000 1280.000000"
 preserveAspectRatio="xMidYMid meet">

<g transform="translate(0.000000,1280.000000) scale(0.100000,-0.100000)"
fill="#000000" stroke="none">
<path d="M6005 12069 c-1129 -76 -2240 -507 -3130 -1213 -1144 -909 -1887
-2199 -2099 -3646 -66 -448 -73 -1017 -20 -1465 150 -1267 697 -2413 1584
-3319 867 -885 2006 -1470 3205 -1645 334 -49 434 -55 840 -56 412 0 526 7
835 51 1058 152 2059 606 2875 1304 164 141 507 486 645 650 694 824 1134
1802 1284 2850 44 313 51 423 51 835 -1 406 -7 506 -56 840 -175 1199 -760
2338 -1645 3205 -974 953 -2237 1518 -3599 1610 -173 11 -594 11 -770 -1z
m-640 -3434 c108 -30 266 -105 369 -174 41 -28 85 -51 98 -51 13 0 75 11 138
24 206 43 291 51 565 50 262 0 322 -6 596 -56 l65 -11 91 55 c126 78 234 131
330 161 84 27 312 63 337 54 17 -7 54 -142 72 -262 17 -108 18 -280 3 -376
l-11 -69 39 -48 c195 -235 282 -520 270 -887 -15 -506 -191 -823 -573 -1035
-165 -92 -346 -145 -592 -176 -69 -8 -128 -17 -130 -18 -1 -2 34 -25 80 -52
103 -60 177 -132 217 -212 58 -115 62 -147 70 -619 l8 -432 27 -39 c34 -49 62
-76 129 -122 42 -30 52 -42 52 -65 0 -39 -32 -55 -110 -55 -119 0 -224 40
-308 118 -83 78 -81 64 -87 517 -4 346 -7 404 -21 430 -22 40 -47 61 -92 80
l-38 16 3 -513 3 -513 28 -55 c15 -30 40 -80 57 -110 16 -30 29 -61 30 -67 1
-29 -148 -5 -231 37 -101 52 -163 146 -193 292 -13 64 -16 156 -16 523 l0 445
-84 0 -84 0 -4 -477 c-5 -523 -4 -516 -69 -644 -50 -100 -125 -157 -244 -184
-69 -16 -135 -13 -135 6 0 6 18 42 41 79 82 139 81 133 87 678 2 273 0 488 -5
493 -17 17 -90 -39 -113 -86 -21 -43 -22 -58 -24 -422 -2 -328 -5 -385 -20
-430 -20 -61 -83 -131 -145 -162 -84 -43 -244 -65 -306 -41 -54 21 -45 73 21
115 66 42 130 117 150 178 20 59 22 124 11 312 -12 200 -16 227 -35 221 -106
-32 -251 -34 -372 -6 -47 12 -126 40 -176 65 -117 56 -194 136 -294 303 -80
134 -152 221 -283 343 -99 92 -104 108 -47 147 49 33 124 27 214 -17 52 -25
82 -51 143 -119 149 -167 275 -286 339 -319 156 -83 313 -83 466 -1 54 28 62
38 88 94 50 111 127 178 273 239 37 15 66 30 64 31 -2 2 -55 11 -118 19 -439
60 -743 181 -947 379 -80 77 -165 197 -206 290 -88 200 -133 520 -107 756 27
246 94 424 221 592 45 58 68 98 64 108 -18 46 -34 176 -34 275 0 148 31 325
75 431 l13 32 109 -19 c59 -11 149 -31 198 -44z"/>
</g>
</svg>
