<?xml version="1.0" standalone="no"?>
<!DOCTYPE svg PUBLIC "-//W3C//DTD SVG 20010904//EN"
 "http://www.w3.org/TR/2001/REC-SVG-20010904/DTD/svg10.dtd">
<svg version="1.0" xmlns="http://www.w3.org/2000/svg"
 width="512.000000pt" height="512.000000pt" viewBox="0 0 512.000000 512.000000"
 preserveAspectRatio="xMidYMid meet">

<g transform="translate(0.000000,512.000000) scale(0.100000,-0.100000)"
fill="#000000" stroke="none">
<path d="M359 4541 c-90 -29 -156 -71 -220 -138 -68 -74 -103 -137 -124 -225
-22 -95 -22 -3141 0 -3236 41 -173 177 -314 354 -366 49 -14 264 -16 2190 -16
1774 0 2145 3 2187 14 123 33 237 122 308 239 69 117 66 25 66 1747 0 1722 3
1630 -66 1747 -71 117 -176 200 -303 237 -49 14 -264 16 -2195 15 -2023 0
-2144 -1 -2197 -18z m3028 -1138 l-827 -828 -827 828 -828 827 1655 0 1655 0
-828 -827z m-1047 -1987 c145 -70 295 -70 440 0 72 35 101 62 708 668 l632
631 0 -913 0 -912 -1560 0 -1560 0 0 912 0 913 633 -631 c606 -606 635 -633
707 -668z"/>
</g>
</svg>
