<?xml version="1.0" standalone="no"?>
<!DOCTYPE svg PUBLIC "-//W3C//DTD SVG 20010904//EN"
 "http://www.w3.org/TR/2001/REC-SVG-20010904/DTD/svg10.dtd">
<svg version="1.0" xmlns="http://www.w3.org/2000/svg"
 width="474.000000pt" height="477.000000pt" viewBox="0 0 474.000000 477.000000"
 preserveAspectRatio="xMidYMid meet">

<g transform="translate(0.000000,477.000000) scale(0.100000,-0.100000)"
fill="#000000" stroke="none">
<path d="M2308 4761 c-4 -11 -140 -17 -156 -7 -7 4 -12 3 -12 -2 0 -14 -58
-20 -71 -8 -9 8 -10 8 -6 0 8 -15 -46 -24 -67 -12 -10 5 -16 5 -16 0 0 -5 -9
-12 -20 -15 -11 -3 -20 0 -20 6 0 8 -3 7 -9 -1 -4 -8 -27 -15 -50 -15 -22 -1
-41 -6 -41 -11 0 -4 -11 -6 -25 -4 -14 3 -25 1 -25 -4 0 -6 -7 -8 -15 -4 -8 3
-15 0 -15 -5 0 -6 -9 -9 -20 -6 -11 3 -20 1 -20 -5 0 -5 -9 -6 -20 -3 -11 3
-20 2 -20 -3 0 -6 -8 -9 -17 -8 -10 2 -21 -1 -24 -6 -4 -6 -18 -11 -32 -11
-14 -1 -23 -5 -20 -9 4 -7 -15 -12 -44 -11 -7 1 -10 -3 -7 -8 5 -8 0 -10 -38
-13 -7 -1 -19 -7 -27 -14 -7 -7 -20 -11 -27 -8 -8 3 -14 1 -14 -5 0 -6 -4 -7
-10 -4 -5 3 -10 1 -10 -5 0 -6 -4 -8 -10 -5 -5 3 -10 1 -10 -5 0 -6 -4 -8 -10
-5 -5 3 -10 2 -10 -4 0 -6 -7 -7 -17 -4 -10 4 -14 2 -10 -4 8 -12 -20 -26 -34
-17 -5 3 -9 1 -9 -5 0 -10 -39 -27 -53 -23 -5 1 -6 -2 -3 -7 5 -8 -33 -28 -42
-22 -2 1 -9 -4 -15 -13 -7 -8 -19 -16 -27 -18 -8 -2 -19 -8 -25 -15 -5 -7 -16
-13 -24 -15 -8 -2 -23 -11 -33 -21 -10 -10 -24 -15 -31 -11 -7 4 -9 4 -5 -1
10 -11 -52 -56 -65 -48 -6 3 -7 1 -4 -4 7 -11 -20 -28 -38 -24 -5 2 -7 -1 -3
-5 9 -9 -33 -40 -47 -36 -5 2 -7 0 -3 -4 9 -9 -33 -40 -47 -36 -5 2 -7 1 -3
-3 7 -7 -69 -80 -83 -80 -4 0 -14 -7 -21 -15 -11 -12 -10 -12 7 0 11 8 -5 -10
-35 -39 -30 -30 -59 -55 -65 -55 -5 -1 -10 -6 -10 -12 0 -16 -82 -103 -90 -96
-4 4 -6 3 -4 -3 4 -17 -12 -45 -22 -39 -5 3 -9 2 -8 -3 4 -15 -13 -43 -22 -37
-5 3 -8 2 -7 -3 4 -13 -28 -54 -36 -45 -4 4 -7 3 -6 -3 5 -22 -1 -36 -12 -29
-6 4 -8 3 -5 -2 8 -13 -48 -95 -58 -86 -5 4 -5 2 -1 -5 4 -7 -2 -21 -14 -33
-11 -11 -20 -23 -20 -27 0 -21 -13 -43 -21 -37 -5 3 -8 2 -7 -3 5 -14 -24 -73
-33 -67 -5 3 -6 -2 -3 -10 4 -9 0 -18 -9 -22 -9 -3 -13 -12 -10 -21 5 -12 3
-14 -7 -8 -10 6 -12 4 -7 -8 3 -10 2 -17 -4 -17 -6 0 -7 -4 -4 -10 3 -5 1 -10
-5 -10 -6 0 -9 -4 -6 -9 3 -4 -3 -27 -14 -49 -11 -23 -20 -46 -20 -52 0 -6 -5
-8 -12 -4 -6 4 -8 3 -5 -3 7 -12 -11 -73 -21 -73 -4 0 -8 -13 -9 -30 l-2 -29
183 -3 c127 -2 182 0 179 8 -6 15 22 65 32 56 5 -4 5 -2 1 5 -7 13 33 103 47
103 4 0 5 5 2 10 -3 6 -1 10 4 10 6 0 10 3 9 8 -5 14 24 72 33 66 5 -3 6 1 3
9 -3 8 1 21 8 28 7 8 21 26 30 40 l17 27 195 1 c113 1 197 -2 200 -8 9 -15 -5
-71 -17 -64 -6 4 -8 -2 -5 -15 4 -12 2 -22 -4 -22 -5 0 -7 -9 -3 -19 3 -11 1
-22 -4 -25 -6 -4 -8 -13 -4 -21 3 -8 1 -15 -5 -15 -5 0 -7 -11 -4 -25 2 -14 0
-25 -6 -25 -6 0 -8 -9 -5 -20 3 -11 1 -20 -3 -20 -5 0 -10 -20 -11 -45 l-2
-44 178 -3 c147 -2 178 -1 173 11 -3 7 1 17 9 22 8 5 9 9 2 9 -6 0 -9 9 -6 20
3 11 9 18 13 15 4 -2 5 7 2 22 -3 18 -1 24 7 19 9 -6 10 0 5 20 -5 21 -4 25 6
19 10 -6 12 -1 8 18 -3 16 -1 24 5 20 5 -3 6 3 2 16 -4 12 -2 21 4 21 6 0 8 7
5 15 -4 8 -1 15 6 15 6 0 9 4 5 9 -3 5 -1 12 4 16 6 3 8 12 4 20 -3 8 -1 15 5
15 6 0 8 10 4 22 -3 14 -2 19 6 14 7 -4 12 -2 12 3 0 8 276 11 911 11 794 0
912 -2 925 -15 9 -8 12 -20 8 -26 -5 -8 -3 -9 6 -4 10 6 12 3 8 -13 -4 -12 -2
-22 4 -22 6 0 7 -7 4 -16 -4 -10 -2 -13 6 -8 7 5 9 0 6 -14 -4 -12 -2 -22 4
-22 6 0 8 -7 4 -15 -3 -8 -1 -15 5 -15 6 0 8 -9 4 -21 -5 -16 -4 -19 5 -14 10
6 11 1 6 -19 -4 -15 -2 -26 4 -26 6 0 8 -11 4 -26 -5 -18 -3 -25 3 -21 11 7
28 -57 19 -71 -2 -4 76 -6 174 -4 l179 3 -2 44 c-1 25 -6 45 -11 45 -4 0 -6 9
-3 20 3 11 1 23 -5 26 -5 3 -8 15 -5 25 3 11 1 19 -5 19 -5 0 -6 10 -3 21 5
16 4 19 -5 14 -10 -6 -11 -1 -6 19 4 17 2 26 -5 26 -6 0 -9 9 -6 20 3 11 1 23
-5 26 -5 3 -7 12 -4 19 3 8 0 16 -7 19 -9 3 -8 8 3 15 10 7 82 11 203 10 l188
-1 26 -42 c15 -22 26 -46 26 -53 0 -7 4 -10 8 -7 8 4 25 -35 21 -48 -1 -5 3
-8 9 -8 5 0 7 -4 4 -10 -3 -5 -1 -10 5 -10 6 0 8 -4 5 -10 -3 -5 -1 -10 5 -10
6 0 8 -4 5 -10 -3 -5 -1 -10 5 -10 6 0 8 -4 5 -10 -3 -5 -2 -10 3 -10 13 0 33
-50 26 -63 -4 -7 -3 -9 1 -4 9 8 38 -50 31 -62 -2 -3 79 -5 180 -3 136 2 184
6 184 15 0 7 -9 32 -21 56 -11 25 -17 51 -15 58 3 7 2 13 -3 13 -11 0 -32 50
-26 61 4 5 1 9 -5 9 -6 0 -8 5 -5 10 3 6 1 10 -5 10 -6 0 -8 5 -5 10 3 6 2 10
-4 10 -6 0 -7 7 -4 17 5 12 3 14 -7 8 -10 -6 -12 -4 -7 9 4 9 3 15 -2 12 -11
-7 -33 43 -25 56 4 6 3 8 -3 5 -13 -8 -46 50 -37 65 4 6 3 8 -2 5 -5 -3 -17 8
-27 24 -9 17 -12 27 -7 24 17 -11 11 1 -15 29 -14 15 -23 31 -20 36 3 5 -4 11
-14 15 -19 6 -38 40 -33 58 1 5 -2 6 -8 2 -5 -3 -10 -1 -10 4 0 21 -3 26 -22
39 -10 7 -16 17 -13 22 3 5 -4 14 -15 20 -11 6 -19 14 -17 18 1 4 -2 9 -8 11
-16 6 -34 35 -28 45 4 5 2 6 -4 3 -9 -6 -78 69 -78 85 0 4 -6 13 -14 20 -12
11 -12 10 -5 -2 4 -8 -13 5 -39 30 -26 25 -47 50 -47 56 0 6 -10 19 -22 30
l-23 19 20 -25 c11 -15 3 -10 -20 11 -22 20 -50 45 -62 55 -12 9 -19 22 -16
27 3 6 2 8 -3 4 -11 -6 -40 13 -42 28 -1 6 -5 10 -9 11 -21 2 -42 17 -37 25 3
5 2 9 -3 8 -21 -4 -33 2 -33 17 0 8 -4 13 -9 10 -11 -7 -73 39 -64 48 4 4 0 4
-10 0 -12 -4 -17 -1 -17 12 0 9 -3 14 -7 11 -3 -4 -12 1 -20 11 -10 11 -12 12
-8 2 5 -12 4 -12 -7 1 -7 9 -19 14 -27 11 -9 -3 -11 0 -6 8 5 8 4 11 -3 6 -14
-8 -104 48 -94 59 4 5 2 5 -5 1 -14 -8 -73 20 -73 34 0 5 -7 6 -17 3 -12 -5
-14 -3 -8 7 6 10 4 12 -8 7 -10 -3 -17 -2 -17 4 0 6 -4 8 -9 5 -11 -7 -63 19
-55 26 3 4 -1 6 -8 5 -31 -1 -49 4 -44 12 3 5 0 9 -7 8 -31 -1 -48 4 -43 12 3
5 0 9 -7 8 -34 -1 -48 4 -41 15 4 7 3 8 -4 4 -16 -9 -63 4 -56 16 4 6 -2 8
-15 3 -13 -4 -21 -2 -21 5 0 7 -8 9 -20 5 -12 -4 -20 -2 -20 5 0 7 -8 9 -20 5
-11 -4 -20 -2 -20 4 0 6 -7 8 -15 5 -8 -4 -15 -2 -15 4 0 5 -11 7 -25 4 -14
-2 -25 0 -25 4 0 5 -19 10 -42 11 -23 1 -44 6 -46 11 -1 5 -14 7 -27 4 -14 -2
-25 0 -25 5 0 5 -16 7 -36 5 -24 -3 -39 0 -45 9 -5 8 -9 9 -9 4 0 -6 -17 -9
-40 -7 -27 3 -38 8 -33 16 5 8 3 8 -8 0 -8 -6 -23 -10 -34 -8 -11 2 -44 4 -72
5 -29 1 -53 6 -53 12 0 5 -10 6 -22 3 -39 -12 -68 -14 -62 -5 3 5 -1 9 -10 9
-8 0 -16 -4 -18 -9z m102 -350 c0 -4 21 -6 47 -6 27 0 48 -5 50 -12 3 -7 10
-10 18 -7 16 7 115 -35 115 -48 0 -5 5 -6 10 -3 20 13 198 -117 192 -139 -2
-6 0 -8 4 -3 9 9 75 -53 69 -63 -3 -4 3 -14 13 -21 16 -13 16 -12 3 6 -7 11 1
5 17 -14 17 -19 28 -39 25 -45 -3 -6 -3 -8 2 -4 8 8 99 -101 91 -109 -2 -2 6
-15 19 -29 13 -13 25 -33 28 -44 6 -24 91 -22 -811 -23 -436 0 -676 3 -683 10
-6 6 -2 18 13 35 13 14 24 32 26 39 2 8 10 19 18 26 9 6 15 14 14 17 -2 12 17
38 26 37 5 -1 9 2 9 7 1 19 27 52 37 46 6 -4 8 -3 5 3 -4 6 5 23 19 39 15 16
23 22 18 14 -7 -13 -5 -13 9 -1 9 7 15 17 12 21 -5 8 43 56 53 53 4 -2 7 1 7
6 0 15 58 60 68 54 6 -3 7 -1 4 5 -7 10 77 67 98 67 6 0 15 5 20 11 16 17 116
56 130 50 8 -3 15 0 18 7 2 6 24 12 50 12 26 1 50 4 54 8 8 9 83 6 83 -2z
m-1065 -325 c-10 -19 -23 -32 -28 -29 -6 4 -7 1 -2 -7 5 -8 2 -17 -7 -24 -8
-6 -16 -15 -17 -21 -4 -29 -14 -45 -23 -39 -6 4 -8 2 -5 -3 4 -6 -7 -35 -23
-66 -25 -46 -34 -54 -52 -49 -16 4 -19 2 -13 -8 6 -10 4 -11 -6 -4 -8 5 -40 9
-71 10 -32 1 -75 2 -95 3 l-37 1 48 45 c26 25 52 42 58 39 6 -4 8 -2 5 3 -7
11 41 49 56 45 4 -1 7 4 7 11 0 14 56 53 71 50 5 -2 9 2 9 7 0 15 91 71 103
63 6 -3 7 -1 3 5 -8 13 16 23 28 11 6 -5 2 -22 -9 -43z m2113 7 c28 -19 52
-38 52 -44 0 -6 5 -7 10 -4 6 3 13 -1 16 -9 3 -9 9 -14 13 -12 4 3 41 -22 82
-56 79 -64 104 -86 80 -73 -10 5 -12 4 -7 -4 4 -6 11 -9 16 -6 8 5 36 -23 29
-29 -4 -4 -168 -9 -217 -7 -17 1 -26 10 -35 34 -6 17 -10 35 -9 40 1 4 -3 7
-9 7 -5 0 -7 5 -4 10 3 6 1 10 -5 10 -6 0 -8 5 -5 10 3 6 1 10 -6 10 -7 0 -10
3 -6 6 3 3 -3 14 -14 25 -11 11 -17 24 -14 29 4 6 2 10 -3 10 -15 0 -54 71
-48 87 4 8 11 11 18 7 7 -4 37 -23 66 -41z"/>
<path d="M1009 3883 c-13 -16 -12 -17 4 -4 9 7 17 15 17 17 0 8 -8 3 -21 -13z"/>
<path d="M35 2760 c3 -5 1 -10 -6 -10 -7 0 -9 -11 -6 -32 3 -18 7 -42 9 -53 2
-11 9 -26 16 -33 10 -12 13 -23 12 -47 -1 -3 6 -13 15 -22 9 -8 14 -22 11 -29
-3 -8 -1 -14 5 -14 6 0 8 -7 5 -16 -3 -8 -2 -12 4 -9 9 6 14 -11 13 -43 -1 -7
2 -11 5 -8 9 9 33 -55 25 -68 -3 -6 -2 -8 2 -3 10 9 37 -51 29 -64 -3 -5 -1
-9 4 -9 12 0 34 -49 27 -61 -4 -5 -2 -9 4 -9 6 0 8 -7 5 -15 -4 -8 -1 -15 6
-15 6 0 8 -4 5 -10 -3 -5 -1 -10 5 -10 7 0 9 -7 6 -16 -3 -8 -2 -12 4 -9 9 6
14 -11 13 -43 -1 -7 2 -11 5 -8 9 9 33 -54 25 -67 -4 -6 -1 -7 6 -3 8 6 11 2
9 -10 -2 -13 2 -18 15 -16 9 2 17 -2 17 -8 0 -6 33 -10 85 -10 47 0 85 4 85 8
0 5 11 14 24 22 14 7 22 18 20 25 -3 7 2 19 10 28 8 8 12 17 9 21 -4 3 -1 6 6
6 7 0 10 4 7 9 -8 12 29 93 38 84 4 -4 4 1 0 11 -5 13 -4 17 4 12 8 -4 10 -2
6 8 -3 8 3 23 14 34 11 11 18 22 16 25 -2 2 4 23 14 45 10 23 22 39 26 35 4
-4 4 0 0 10 -3 10 -1 17 6 17 6 0 8 5 5 10 -3 6 -2 10 4 10 6 0 8 7 5 15 -4
10 0 15 16 15 11 0 18 -4 15 -10 -3 -5 -1 -10 5 -10 6 0 8 -4 5 -10 -3 -5 -1
-10 5 -10 7 0 9 -7 6 -16 -3 -8 -2 -12 4 -9 9 6 14 -11 13 -43 -1 -7 2 -11 5
-8 8 9 43 -75 35 -87 -4 -6 -1 -7 7 -2 10 6 12 4 7 -8 -3 -10 -3 -17 2 -17 11
0 32 -50 26 -61 -4 -5 -1 -9 5 -9 6 0 8 -4 5 -10 -3 -5 -1 -10 5 -10 6 0 8 -4
5 -10 -3 -5 -2 -10 4 -10 6 0 7 -7 4 -17 -5 -12 -3 -14 7 -8 10 6 12 4 7 -8
-3 -10 -2 -17 4 -17 6 0 8 -4 5 -8 -3 -5 6 -15 19 -22 13 -7 22 -17 19 -22 -3
-4 35 -8 83 -8 78 0 90 2 101 20 7 12 18 18 24 14 6 -4 8 -3 5 3 -8 13 39 123
53 123 5 0 7 6 4 14 -3 7 1 20 9 27 7 8 12 19 10 25 -2 7 3 18 11 27 8 8 12
17 9 21 -4 3 -1 6 6 6 7 0 10 4 6 9 -6 11 25 81 37 81 4 0 4 7 1 17 -5 12 -3
14 7 8 9 -5 11 -4 6 3 -8 13 21 82 35 82 5 0 6 6 3 14 -3 7 1 20 9 27 7 8 12
20 9 28 -3 8 0 11 7 7 6 -4 9 -2 5 7 -3 8 2 21 10 30 8 8 12 17 9 21 -4 3 -2
6 3 6 5 0 10 8 11 18 1 9 9 38 19 63 27 69 13 79 -108 79 -100 -1 -113 -7
-132 -67 -4 -13 -11 -23 -16 -23 -5 0 -7 -7 -4 -15 4 -8 1 -15 -5 -15 -6 0 -8
-7 -5 -15 4 -8 2 -15 -3 -15 -5 0 -10 -10 -10 -22 -1 -13 -7 -24 -12 -26 -5
-2 -8 -9 -5 -16 3 -8 -2 -20 -10 -29 -8 -8 -13 -17 -11 -19 8 -8 -52 -148 -60
-141 -4 5 -5 3 -2 -4 10 -17 -11 -65 -26 -60 -6 2 -11 12 -11 21 1 9 -3 16 -9
16 -6 0 -8 3 -4 6 3 4 -1 13 -9 21 -8 9 -13 20 -11 27 2 6 -3 17 -10 25 -8 7
-12 20 -9 27 3 8 1 14 -4 14 -5 0 -6 7 -3 17 5 12 3 14 -7 8 -8 -5 -11 -3 -8
6 3 8 -2 20 -9 28 -8 7 -12 20 -9 27 3 8 0 14 -6 14 -6 0 -9 3 -6 6 4 3 -3 15
-13 25 -11 11 -19 28 -17 37 2 9 -2 22 -10 28 -8 5 -15 22 -15 37 -1 15 -6 27
-10 27 -5 0 -6 4 -2 9 3 5 -4 12 -15 16 -11 3 -20 11 -20 16 0 5 -36 9 -80 9
-49 0 -80 -4 -80 -10 0 -6 -7 -10 -16 -8 -12 2 -18 -5 -19 -21 -1 -14 -7 -27
-14 -29 -6 -2 -9 -8 -5 -13 3 -5 0 -9 -6 -9 -6 0 -8 -4 -5 -10 3 -5 1 -10 -5
-10 -6 0 -9 -4 -6 -9 8 -13 -29 -92 -39 -83 -5 4 -5 2 -1 -5 7 -13 -13 -63
-26 -63 -5 0 -6 -4 -3 -10 3 -5 2 -10 -4 -10 -6 0 -8 -7 -5 -15 4 -8 1 -15 -6
-15 -6 0 -8 -4 -5 -10 3 -5 2 -10 -4 -10 -6 0 -8 -6 -5 -14 3 -7 -1 -20 -9
-27 -7 -8 -12 -20 -9 -28 3 -9 0 -11 -8 -6 -9 5 -11 4 -6 -3 4 -6 0 -24 -8
-39 -8 -16 -15 -22 -16 -15 0 7 -4 11 -9 7 -6 -3 -8 4 -6 15 2 11 -1 20 -7 20
-5 0 -7 7 -4 16 3 8 2 13 -3 10 -10 -7 -32 64 -24 77 4 6 1 7 -7 2 -10 -6 -12
-3 -8 13 4 12 3 22 -2 22 -12 0 -33 57 -25 69 3 6 2 11 -3 11 -12 0 -34 59
-26 71 3 5 0 9 -6 9 -7 0 -10 7 -6 15 3 8 1 15 -3 15 -5 0 -12 7 -15 16 -4 9
-2 13 5 8 12 -7 -18 43 -38 64 -15 15 -218 18 -208 2z"/>
<path d="M1662 2753 c-7 -10 -10 -11 -6 -3 4 8 3 12 -1 7 -5 -4 -9 -18 -10
-32 0 -13 1 -22 4 -20 2 3 13 -14 23 -37 10 -22 16 -43 14 -46 -3 -2 2 -11 10
-19 8 -9 13 -22 10 -29 -3 -8 -1 -14 5 -14 6 0 7 -4 4 -10 -3 -5 -1 -10 5 -10
7 0 10 -7 6 -15 -3 -8 -1 -15 5 -15 6 0 8 -8 5 -17 -4 -10 -4 -14 0 -10 9 9
36 -52 28 -64 -3 -5 -1 -9 4 -9 13 0 33 -50 26 -62 -4 -7 -2 -8 4 -4 11 7 16
-7 15 -41 -1 -7 4 -13 10 -13 6 0 8 -3 4 -6 -3 -4 1 -13 9 -21 8 -9 13 -22 10
-29 -3 -8 -1 -14 4 -14 5 0 6 -7 3 -17 -5 -12 -3 -14 7 -8 10 6 12 4 7 -8 -4
-10 -2 -17 4 -17 6 0 8 -8 5 -17 -4 -10 -4 -14 0 -10 10 10 36 -52 27 -66 -3
-5 -2 -7 4 -4 5 3 15 -10 22 -29 7 -18 19 -34 27 -34 8 0 12 -4 9 -10 -4 -6
27 -10 85 -10 58 0 89 4 85 10 -3 6 -1 10 4 10 18 0 48 35 43 50 -3 8 0 10 8
5 10 -6 12 -4 7 8 -3 10 -2 17 4 17 6 0 7 5 4 10 -3 6 -1 10 5 10 6 0 9 4 6 9
-8 12 88 213 98 204 4 -4 4 0 1 9 -3 8 0 22 8 29 7 8 12 20 9 27 -2 6 1 12 8
12 6 0 8 5 5 10 -3 6 -1 10 5 10 6 0 8 5 5 10 -3 6 3 10 13 10 20 0 36 -25 26
-41 -3 -5 0 -9 6 -9 6 0 8 -5 5 -10 -3 -6 1 -17 10 -26 9 -9 14 -23 11 -31 -4
-9 -2 -11 6 -7 8 5 9 1 4 -12 -4 -10 -4 -15 0 -11 10 9 46 -72 37 -86 -4 -6
-1 -7 7 -2 10 6 12 4 7 -8 -3 -10 -3 -17 1 -17 12 0 43 -70 37 -81 -4 -5 -1
-9 5 -9 6 0 8 -4 5 -10 -3 -5 -2 -10 4 -10 6 0 7 -7 4 -17 -4 -10 -2 -14 4
-10 6 4 13 -2 16 -13 3 -11 13 -20 22 -20 9 0 13 -4 10 -10 -11 -17 154 -13
172 5 8 8 18 13 22 11 4 -3 8 5 8 17 1 12 9 27 17 33 9 6 13 13 10 16 -6 7 27
78 38 78 4 0 4 7 1 17 -5 12 -3 14 7 8 10 -6 12 -4 7 8 -3 10 -2 17 4 17 6 0
7 5 4 10 -3 6 -2 10 4 10 6 0 8 6 5 14 -3 7 1 20 9 27 7 8 12 20 9 28 -3 9 0
11 8 6 8 -5 11 -4 6 3 -8 14 39 122 54 122 6 0 9 4 6 9 -8 13 19 73 29 64 4
-5 5 0 2 10 -4 9 -2 17 4 17 6 0 7 5 4 10 -3 6 -1 10 5 10 6 0 9 4 5 9 -7 12
15 61 27 61 5 0 6 5 3 10 -3 6 -2 10 4 10 6 0 7 7 4 17 -4 9 -2 14 3 10 5 -3
10 2 11 11 0 9 3 32 6 49 2 18 0 30 -4 27 -5 -3 -9 0 -9 5 0 7 -35 11 -95 11
-105 0 -127 -10 -140 -62 -4 -16 -11 -25 -16 -22 -5 3 -6 -2 -3 -10 3 -9 1
-16 -5 -16 -6 0 -8 -7 -5 -15 4 -8 2 -15 -3 -15 -5 0 -10 -10 -10 -22 -1 -13
-7 -24 -12 -26 -5 -2 -8 -9 -5 -16 3 -8 -2 -20 -10 -29 -8 -8 -13 -17 -11 -19
6 -5 -43 -130 -54 -138 -3 -3 -7 -16 -9 -30 -1 -14 -7 -27 -12 -28 -6 -2 -8
-7 -6 -11 3 -4 -2 -8 -10 -8 -8 0 -13 6 -10 14 3 7 2 13 -3 13 -10 0 -34 51
-27 57 3 3 -2 12 -10 20 -8 9 -13 22 -10 29 3 8 1 14 -4 14 -5 0 -7 7 -4 15 4
8 1 15 -7 15 -7 0 -10 3 -6 6 3 4 -1 13 -9 21 -8 9 -13 20 -11 27 2 6 -3 16
-11 22 -7 5 -15 22 -15 36 -1 15 -4 24 -6 22 -7 -6 -35 58 -34 78 0 10 -4 15
-10 11 -5 -3 -8 0 -5 8 2 7 -6 24 -18 36 -20 20 -33 23 -102 23 -63 0 -81 -3
-86 -16 -3 -8 -11 -12 -17 -8 -8 4 -9 3 -5 -4 4 -7 2 -12 -4 -12 -6 0 -8 -4
-5 -10 3 -5 1 -10 -5 -10 -6 0 -8 -4 -5 -10 3 -5 1 -10 -5 -10 -6 0 -9 -4 -6
-9 8 -13 -29 -92 -39 -83 -5 4 -5 2 -2 -4 8 -15 -27 -97 -37 -87 -4 4 -4 -1 0
-11 5 -13 4 -17 -4 -12 -8 5 -10 2 -6 -8 3 -9 1 -16 -5 -16 -6 0 -8 -7 -4 -17
4 -11 3 -14 -5 -9 -8 5 -10 2 -6 -8 3 -9 1 -16 -6 -16 -6 0 -8 -4 -5 -10 3 -5
1 -10 -5 -10 -6 0 -9 -4 -5 -9 3 -5 -2 -25 -11 -45 -20 -40 -45 -57 -36 -24 4
16 2 19 -8 13 -10 -6 -12 -3 -8 13 4 12 2 22 -2 22 -12 0 -31 60 -23 73 4 6 1
7 -7 2 -10 -6 -12 -3 -8 13 4 12 3 20 -1 17 -10 -6 -32 65 -24 78 3 6 1 7 -5
3 -11 -7 -16 7 -15 42 1 6 -4 12 -9 12 -6 0 -8 7 -4 15 3 8 1 15 -5 15 -6 0
-9 7 -5 15 3 8 1 15 -5 15 -6 0 -9 6 -6 14 3 8 1 16 -4 18 -5 2 -11 17 -13 33
-3 21 -8 29 -20 27 -9 -2 -16 2 -16 8 0 6 -36 10 -98 10 -81 0 -99 -3 -110
-17z"/>
<path d="M3305 2760 c3 -5 1 -10 -5 -10 -6 0 -9 -16 -8 -39 2 -22 5 -37 7 -35
7 7 31 -57 25 -67 -3 -5 0 -9 6 -9 6 0 8 -4 5 -10 -3 -5 -1 -10 5 -10 7 0 10
-7 6 -15 -3 -8 -1 -15 5 -15 6 0 7 -4 4 -10 -3 -5 -1 -10 5 -10 7 0 9 -7 6
-17 -4 -10 -4 -14 0 -10 10 10 45 -83 37 -97 -3 -6 -2 -8 2 -3 11 10 37 -51
28 -67 -3 -6 -2 -8 2 -3 10 9 37 -51 29 -64 -3 -5 0 -9 6 -9 6 0 8 -4 5 -10
-3 -5 -1 -10 5 -10 7 0 10 -7 6 -15 -3 -8 -1 -15 4 -15 5 0 6 -7 3 -17 -4 -10
-2 -14 5 -9 13 8 26 -29 16 -45 -5 -8 -3 -9 6 -4 8 5 11 3 8 -6 -3 -8 2 -20 9
-28 8 -7 12 -20 9 -28 -3 -8 -1 -11 4 -8 6 3 10 -1 10 -9 0 -8 11 -26 24 -40
21 -24 31 -26 101 -26 73 0 79 2 106 30 16 16 29 37 29 45 0 9 4 13 10 10 6
-3 7 1 4 9 -3 9 -1 16 6 16 6 0 8 5 5 10 -3 6 -1 10 5 10 6 0 8 5 5 10 -3 6
-1 10 5 10 6 0 8 5 5 10 -3 6 -2 10 4 10 6 0 7 7 4 17 -5 12 -3 14 7 8 8 -5
11 -4 6 3 -7 11 60 154 75 160 4 2 5 10 2 18 -3 8 -1 14 5 14 5 0 13 7 16 16
3 8 2 12 -4 9 -5 -3 -7 1 -4 9 7 17 32 29 45 20 5 -3 7 -10 4 -15 -4 -5 -1 -9
5 -9 7 0 10 -7 6 -15 -3 -8 -1 -15 5 -15 6 0 8 -8 5 -17 -4 -10 -4 -14 0 -10
10 9 46 -72 37 -86 -4 -6 -1 -7 7 -2 10 6 12 4 6 -11 -4 -10 -4 -15 0 -11 9 9
46 -72 38 -84 -3 -5 0 -9 7 -9 7 0 10 -3 6 -6 -3 -4 1 -13 9 -21 8 -9 13 -22
10 -30 -4 -9 -2 -11 6 -7 8 5 9 2 5 -9 -4 -10 -2 -17 4 -17 6 0 8 -7 5 -16 -3
-9 -2 -12 5 -9 6 4 9 -1 7 -11 -2 -13 2 -18 15 -16 9 2 17 -2 17 -8 0 -6 31
-10 80 -10 92 0 107 8 138 78 10 23 22 39 26 35 4 -4 4 1 0 11 -6 15 -4 17 6
11 8 -5 11 -4 6 3 -7 12 13 62 25 62 5 0 6 7 3 15 -4 8 -1 15 6 15 6 0 8 5 5
10 -3 6 -1 10 5 10 6 0 9 4 6 9 -8 12 32 101 45 101 6 0 8 4 5 9 -8 12 39 113
48 104 4 -4 4 0 1 9 -3 8 0 22 8 29 7 8 12 20 9 27 -2 6 1 12 8 12 6 0 8 5 5
10 -3 6 -2 10 4 10 6 0 7 7 4 17 -5 12 -3 14 7 8 8 -5 11 -4 6 3 -8 13 38 115
48 105 4 -4 5 -1 2 7 -2 8 -7 27 -10 43 l-6 27 -100 0 c-66 0 -100 -4 -100
-11 0 -6 -7 -9 -15 -5 -8 3 -14 2 -13 -2 3 -15 -15 -62 -22 -57 -5 3 -6 -5 -2
-17 3 -14 1 -19 -6 -14 -8 5 -10 2 -6 -8 3 -9 1 -16 -5 -16 -6 0 -8 -7 -5 -15
4 -8 1 -15 -6 -15 -6 0 -8 -4 -5 -10 3 -5 2 -10 -4 -10 -6 0 -8 -7 -5 -15 4
-8 1 -15 -6 -15 -6 0 -8 -4 -5 -10 3 -5 2 -10 -3 -10 -6 0 -10 -6 -9 -12 1
-32 -4 -49 -12 -44 -5 3 -9 0 -8 -7 1 -31 -4 -48 -12 -43 -5 3 -9 0 -8 -7 1
-29 -4 -48 -10 -44 -5 3 -9 -6 -9 -19 -1 -13 -9 -30 -17 -39 -14 -13 -17 -13
-32 1 -9 9 -14 23 -11 30 3 8 2 14 -3 14 -11 0 -32 50 -26 61 4 5 2 9 -4 9 -6
0 -7 7 -4 17 5 12 3 14 -7 8 -10 -6 -12 -4 -7 8 4 10 2 17 -4 17 -6 0 -8 8 -5
17 4 10 4 14 0 10 -10 -10 -36 52 -27 67 3 6 2 8 -2 3 -11 -10 -48 70 -39 85
5 7 3 8 -6 3 -10 -6 -12 -4 -7 8 3 10 2 17 -3 17 -9 0 -26 39 -22 53 1 5 -2 6
-8 2 -5 -3 -10 -1 -10 4 0 7 -32 11 -85 11 -47 0 -85 -4 -85 -9 0 -5 -9 -12
-19 -16 -13 -4 -18 -12 -14 -22 5 -12 3 -14 -7 -8 -8 5 -11 4 -7 -2 9 -14 -17
-76 -27 -66 -4 4 -4 -1 0 -11 6 -15 4 -17 -6 -11 -8 5 -11 4 -7 -2 9 -14 -27
-95 -37 -86 -4 4 -4 -1 0 -11 5 -13 4 -17 -4 -12 -8 4 -10 2 -6 -7 3 -8 -1
-21 -9 -28 -7 -8 -12 -20 -9 -28 3 -9 0 -11 -8 -6 -10 6 -12 4 -7 -8 3 -10 2
-17 -3 -17 -5 0 -6 -7 -3 -17 4 -10 2 -14 -4 -10 -6 4 -11 1 -10 -6 1 -32 -4
-48 -13 -42 -5 3 -8 0 -5 -7 8 -21 -11 -42 -30 -34 -11 4 -15 13 -12 26 3 11
1 20 -5 20 -6 0 -8 7 -4 15 3 8 2 15 -3 15 -11 0 -35 59 -28 67 4 3 -1 11 -10
18 -8 6 -16 26 -17 43 0 18 -5 32 -9 32 -5 0 -7 6 -5 12 3 7 -2 19 -9 27 -8 7
-12 20 -9 27 3 8 1 14 -5 14 -6 0 -9 7 -5 15 3 8 1 15 -5 15 -6 0 -9 7 -5 15
3 8 1 15 -3 15 -5 0 -12 7 -15 16 -4 10 -2 13 7 8 11 -7 -8 19 -40 53 -14 16
-218 19 -208 3z"/>
<path d="M303 1643 c-106 -2 -183 -7 -183 -13 0 -5 9 -32 20 -60 11 -28 18
-56 15 -61 -4 -5 -2 -9 3 -9 13 0 33 -50 26 -62 -5 -7 -2 -8 6 -3 10 6 12 4 7
-8 -3 -10 -2 -17 4 -17 6 0 7 -4 4 -10 -3 -5 -1 -10 5 -10 6 0 8 -4 5 -10 -3
-5 -2 -10 4 -10 6 0 7 -7 4 -17 -4 -10 -2 -14 4 -10 12 8 35 -47 25 -59 -4 -4
-2 -4 4 -1 11 7 42 -49 36 -66 -1 -5 2 -6 7 -3 8 5 24 -24 24 -44 0 -3 6 -9
13 -15 7 -5 14 -16 16 -24 2 -8 11 -23 21 -33 10 -10 15 -24 11 -30 -4 -6 -3
-8 3 -5 10 6 50 -52 45 -66 -1 -5 2 -6 7 -3 8 5 23 -16 25 -36 1 -3 5 -10 10
-15 5 -5 6 -2 2 7 -4 8 1 4 12 -10 11 -13 18 -29 15 -34 -3 -5 -1 -6 4 -3 10
7 28 -20 25 -36 -1 -4 1 -6 6 -5 10 4 83 -77 77 -84 -3 -3 3 -11 12 -19 17
-13 17 -12 4 6 -8 11 1 3 20 -18 19 -21 52 -54 74 -74 22 -19 31 -29 20 -22
-18 13 -19 13 -6 -3 7 -10 16 -16 20 -13 4 2 38 -24 74 -59 37 -35 64 -59 61
-52 -3 6 6 -1 20 -17 14 -15 29 -28 33 -29 21 -2 32 -11 26 -21 -3 -5 -2 -7 4
-4 13 8 75 -37 65 -47 -4 -4 -2 -7 3 -6 22 5 36 -1 29 -12 -4 -7 -3 -8 4 -4 6
4 20 -2 31 -13 11 -11 22 -17 25 -14 3 4 6 1 6 -6 0 -7 4 -10 10 -6 5 3 18 -3
30 -15 11 -11 23 -20 28 -20 20 0 42 -13 36 -21 -3 -5 -2 -8 3 -7 12 4 73 -23
73 -33 0 -5 7 -5 17 -2 11 4 14 3 9 -5 -5 -8 -2 -10 8 -6 9 3 16 1 16 -6 0 -6
5 -8 10 -5 6 3 10 1 10 -5 0 -6 5 -8 10 -5 6 3 10 1 10 -5 0 -6 5 -8 10 -5 6
3 10 2 10 -4 0 -6 6 -8 14 -5 7 3 20 -1 27 -9 8 -7 19 -12 25 -10 7 2 18 -2
25 -9 8 -7 20 -13 27 -14 37 -3 43 -5 39 -11 -3 -5 7 -9 21 -10 15 0 28 -6 30
-11 1 -5 12 -8 22 -5 11 3 20 0 20 -6 0 -5 7 -8 15 -5 8 4 15 1 15 -6 0 -7 8
-9 20 -5 12 4 20 2 20 -5 0 -7 8 -9 20 -5 11 3 20 2 20 -3 0 -5 11 -7 25 -4
14 2 25 0 25 -4 0 -5 19 -10 43 -11 23 -2 43 -7 45 -12 1 -4 14 -6 27 -3 14 2
25 0 25 -5 0 -5 18 -7 40 -5 22 2 40 0 40 -5 0 -5 18 -7 40 -5 22 2 40 0 40
-4 0 -5 36 -8 80 -6 44 2 80 0 80 -5 0 -10 111 -10 126 -1 5 4 62 8 126 10 65
1 118 7 118 12 0 4 18 6 40 4 22 -2 40 0 40 5 0 5 11 7 25 5 13 -3 26 -1 27 4
2 5 21 11 43 13 22 1 48 6 57 10 9 4 22 4 28 0 5 -3 10 -1 10 5 0 7 8 9 20 5
12 -4 20 -2 20 5 0 7 8 9 21 5 16 -5 19 -4 14 6 -6 9 -4 11 8 6 9 -3 19 -1 23
4 3 6 15 9 25 6 11 -3 17 -1 13 4 -5 8 18 13 53 12 7 -1 11 3 8 7 -4 6 66 34
90 35 6 0 16 6 24 13 7 7 18 11 25 9 6 -2 17 2 24 10 8 7 18 11 23 8 5 -4 9
-2 9 4 0 6 6 8 14 5 7 -3 16 2 20 11 3 10 12 15 21 11 8 -3 15 -2 15 3 0 10
61 37 73 33 5 -1 6 2 3 7 -6 9 52 38 67 33 5 -1 6 2 3 7 -6 9 31 27 47 23 5
-1 5 3 1 9 -5 9 -2 10 10 6 10 -4 15 -3 11 3 -6 9 8 14 28 11 5 -1 6 3 2 9 -6
10 9 15 30 10 6 -1 7 2 3 6 -10 10 52 55 65 47 6 -3 7 -1 3 5 -4 7 -2 13 3 13
6 1 15 2 20 3 5 0 13 5 18 10 5 5 2 6 -7 2 -8 -4 -4 1 10 12 13 11 29 18 34
15 5 -3 6 -1 2 5 -6 11 31 38 46 34 5 -1 7 2 5 6 -3 10 68 73 75 67 3 -3 13 5
24 17 l19 23 -25 -19 c-14 -10 -5 0 20 24 25 23 60 59 79 79 19 20 28 27 20
16 -13 -18 -13 -19 3 -6 10 7 16 17 13 21 -7 11 71 90 81 82 4 -4 4 -2 0 5 -4
7 10 29 35 54 23 23 36 38 29 34 -7 -5 -5 3 6 17 10 14 22 24 25 22 3 -2 6 2
6 9 0 20 34 67 44 61 5 -3 9 -2 8 3 -4 22 2 34 14 27 6 -4 9 -4 5 1 -9 10 19
65 33 65 6 0 8 4 4 10 -3 5 2 18 12 28 10 10 19 25 21 33 5 27 25 58 34 53 5
-3 7 -2 6 3 -5 18 24 83 35 76 6 -4 8 0 4 10 -3 10 -2 17 4 17 6 0 7 4 4 10
-3 5 -1 10 5 10 6 0 8 5 5 10 -3 6 -1 10 5 10 6 0 9 4 6 9 -8 13 19 73 29 64
4 -5 5 -2 1 5 -4 7 2 37 13 68 12 30 21 57 21 59 0 3 -81 5 -180 5 l-180 0 -6
-25 c-3 -14 -10 -22 -15 -19 -5 3 -6 -3 -2 -12 5 -13 3 -15 -7 -9 -8 5 -11 4
-6 -3 7 -12 -13 -62 -26 -62 -5 0 -6 -5 -3 -10 3 -6 1 -10 -5 -10 -6 0 -8 -5
-5 -10 3 -6 1 -10 -5 -10 -6 0 -8 -4 -5 -10 3 -5 1 -10 -5 -10 -6 0 -9 -4 -5
-9 7 -12 -29 -73 -38 -66 -4 3 -5 2 -2 -2 6 -7 -32 -73 -52 -89 -14 -12 -349
-18 -385 -8 -10 3 -18 12 -18 20 0 8 4 13 9 10 5 -4 7 3 4 14 -3 11 -1 20 4
20 6 0 8 12 5 26 -4 20 -2 25 8 19 9 -5 10 -2 5 14 -4 13 -2 21 5 21 7 0 9 8
5 20 -3 11 -2 20 3 20 6 0 8 9 5 20 -3 11 0 20 6 20 6 0 11 5 11 11 0 5 -4 8
-9 5 -5 -4 -7 3 -4 14 3 11 8 20 12 20 3 0 7 20 8 45 l2 44 -177 3 -177 3 -2
-40 c-1 -22 -6 -41 -12 -43 -6 -2 -11 -8 -11 -13 0 -6 4 -7 10 -4 6 3 7 -1 4
-9 -3 -9 -10 -16 -16 -16 -5 0 -6 -9 -3 -20 4 -12 2 -20 -5 -20 -7 0 -9 -8 -5
-20 4 -11 2 -20 -4 -20 -6 0 -8 -7 -5 -15 4 -8 1 -15 -5 -15 -6 0 -8 -7 -5
-15 4 -8 2 -15 -2 -15 -5 0 -10 -12 -10 -28 -1 -15 -6 -39 -12 -53 l-11 -26
-917 -1 c-777 0 -919 2 -931 14 -8 7 -11 18 -8 24 3 5 1 10 -5 10 -7 0 -10 7
-6 15 3 8 1 15 -5 15 -6 0 -9 7 -5 15 3 8 1 15 -5 15 -6 0 -9 7 -5 15 3 8 1
15 -5 15 -6 0 -9 7 -5 15 3 8 1 15 -5 15 -6 0 -8 9 -4 20 4 12 2 20 -5 20 -8
0 -10 9 -6 26 5 18 3 24 -5 18 -8 -5 -10 1 -7 19 3 16 1 24 -5 20 -6 -4 -8 4
-5 20 3 16 1 24 -5 20 -6 -4 -8 4 -5 18 l4 24 -177 -3 -178 -3 2 -43 c1 -24 6
-41 11 -38 5 3 7 -7 4 -22 -3 -14 -1 -26 5 -26 5 0 7 -11 5 -25 -3 -14 -1 -25
4 -25 5 0 6 -9 3 -20 -4 -12 -2 -20 5 -20 7 0 9 -8 5 -21 -5 -15 -4 -19 4 -14
8 5 10 -1 5 -21 -5 -19 -4 -25 5 -20 6 4 12 0 12 -11 1 -10 3 -28 4 -40 l2
-22 -200 1 -200 2 -28 44 c-16 25 -26 49 -22 55 3 6 1 7 -5 3 -10 -6 -28 30
-24 47 1 4 -2 7 -8 7 -5 0 -14 10 -21 21 -9 17 -8 20 3 13 8 -4 7 0 -3 12 -26
30 -50 84 -44 94 3 6 2 10 -3 10 -12 0 -34 49 -27 61 4 5 5 8 3 7 -2 -2 -85
-4 -185 -5z m932 -763 c13 -26 21 -50 18 -54 -4 -3 0 -6 7 -6 7 0 11 -3 7 -6
-3 -3 3 -14 14 -25 11 -11 17 -24 14 -28 -2 -5 2 -12 11 -15 10 -4 14 -12 10
-23 -4 -10 -4 -14 0 -10 10 10 46 -53 40 -69 -3 -8 -12 -11 -21 -8 -8 3 -12
10 -9 15 3 5 -1 6 -9 3 -8 -3 -21 1 -28 8 -8 7 -44 33 -82 58 -37 25 -67 51
-67 58 0 7 -4 11 -8 8 -12 -7 -53 24 -46 35 3 5 2 9 -3 8 -22 -4 -33 3 -45 29
-7 15 -19 28 -26 28 -6 1 -17 2 -22 3 -7 1 -7 8 0 21 10 19 20 21 116 19 l105
-1 24 -48z m1874 41 c11 -7 10 -15 -8 -45 -13 -20 -27 -36 -32 -36 -6 0 -8 -4
-4 -9 3 -6 -1 -13 -9 -18 -8 -4 -14 -12 -14 -16 2 -39 -277 -327 -302 -312 -5
3 -11 -2 -14 -11 -3 -8 -10 -13 -15 -10 -5 3 -12 -1 -15 -10 -3 -8 -10 -12
-16 -9 -5 3 -10 1 -10 -5 0 -7 -7 -9 -16 -6 -10 4 -13 2 -8 -6 5 -8 2 -9 -9
-5 -10 3 -17 2 -17 -2 0 -14 -87 -44 -101 -36 -7 5 -10 4 -6 -2 4 -5 -13 -14
-38 -20 -33 -7 -45 -7 -46 1 0 7 -3 6 -6 -1 -7 -18 -113 -18 -114 0 0 8 -2 8
-5 1 -3 -8 -17 -8 -49 -1 -24 6 -42 14 -40 18 3 4 -3 5 -13 2 -23 -6 -92 22
-92 37 0 6 -4 8 -10 5 -5 -3 -10 -2 -10 4 0 6 -7 8 -15 5 -8 -4 -15 -2 -15 3
0 5 -6 10 -13 10 -33 0 -171 114 -159 130 4 4 3 5 -2 0 -11 -8 -78 52 -70 64
2 4 -1 11 -7 15 -8 5 -10 2 -4 -7 4 -8 -7 1 -24 19 -17 19 -28 38 -25 44 4 7
2 8 -4 4 -12 -7 -38 32 -33 49 1 6 -1 7 -5 3 -9 -10 -55 52 -48 63 3 5 0 9 -6
9 -6 0 -8 5 -5 10 3 6 2 10 -3 10 -5 0 -17 12 -27 26 -14 22 -15 28 -4 35 18
11 1470 11 1488 0z m624 3 c12 -4 14 -10 7 -24 -12 -23 -178 -156 -190 -152
-6 1 -10 -2 -10 -7 0 -11 -50 -48 -71 -53 -8 -2 -18 -8 -24 -14 -5 -7 -22 -19
-37 -29 -24 -15 -29 -15 -33 -2 -7 17 28 80 39 70 4 -4 4 0 1 8 -3 9 5 26 19
42 13 14 22 28 19 30 -2 3 12 34 32 70 l35 65 98 1 c54 1 106 -1 115 -5z"/>
<path d="M2929 663 c-13 -16 -12 -17 4 -4 16 13 21 21 13 21 -2 0 -10 -8 -17
-17z"/>
</g>
</svg>
